<?xml version="1.0" encoding="UTF-8"?>
<svg id="Layer_2" data-name="Layer 2" xmlns="http://www.w3.org/2000/svg" viewBox="0 0 186.78 52.54">
  <defs>
    <style>
      .cls-1 {
        fill: #fff;
      }
    </style>
  </defs>
  <g id="Layer_1-2" data-name="Layer 1">
    <g>
      <path class="cls-1" d="m33.55,17.99c-1.19,0-2.39,0-3.58,0-.93,0-2.18-.21-3.07.13-.92.36-.88,1.4-1.01,2.24-.05.37-.54.41-.77.2-1.18-1.05-2.29-2.03-3.79-2.62-1.25-.49-2.59-.75-3.93-.83-2.86-.17-5.74.41-8.27,1.76C.68,23.41-2.27,34.59,1.83,43.04c2,4.11,5.55,7.34,9.92,8.73,4.71,1.49,9.63.68,13.28-2.72.31-.29.75-.06.79.33.08.68.11,1.38.58,1.93.55.64,1.43.63,2.21.65,1.69.06,3.39-.08,5.08-.04,1.27.03,3.14.31,3.69-1.18.24-.65.17-1.36.17-2.04,0-5.16.01-10.31.02-15.47v-8.78c.01-.8.01-1.6.01-2.4,0-1.2.26-2.66-.66-3.59-.89-.69-2.3-.48-3.36-.48Zm-7.87,17.92s-.01.04-.02.06c0,.02,0,.04,0,.07-.5,3.07-3.08,5.35-6.15,5.67-2.86.3-5.77-1.32-6.94-3.97-1.13-2.59-.59-5.85,1.48-7.82,2.11-2,5.51-2.4,8.07-1.07,2.58,1.33,3.93,4.24,3.55,7.07Z"/>
      <path class="cls-1" d="m133.12,24.98c0-1.56.06-3.13,0-4.69-.05-1.38-.86-2.19-2.23-2.28-.49-.03-.98-.01-1.47-.02-2.64-.02-5.28-.04-7.93-.06-4.76-.03-9.51-.07-14.27-.1-.26,0-.45-.21-.46-.46-.04-1.43-.04-3.33.91-4.5.87-1.08,2.39-1.34,3.7-1.41.71-.04,1.41-.02,2.12,0,1.06.01,2.13.04,2.25-1.3.11-1.25.03-2.55.04-3.8.01-1.24.07-2.48,0-3.72-.06-.99-.19-2.04-1.25-2.43-.94-.35-2.21-.17-3.18-.09-2.14.17-4.31.36-6.37,1.01-4.03,1.27-7.06,4.13-8.6,8.06-1.65,4.22-1.33,8.7-1.33,13.14,0,4.61,0,9.23,0,13.84,0,4.38-.1,8.77-.03,13.14.02,1.16.32,2.21,1.56,2.52.96.23,2.06.16,3.04.15,1.59-.01,3.25.15,4.84,0,.8-.07,1.66-.29,2.07-1.05.47-.88.29-2.13.29-3.09,0-2.33,0-4.66,0-6.98,0-4.54-.21-9.13.03-13.66.01-.26.2-.45.46-.46,2.4-.15,4.84-.02,7.24-.01,1.86,0,3.75-.06,5.62.01.67.03.93.26.96.93.03.72.02,1.43.03,2.15.03,1.77.05,3.55.06,5.32.01,2.73.03,5.47.04,8.2,0,1.41.02,2.83.02,4.24,0,1.04-.18,2.43.32,3.39.61,1.18,2.24,1.03,3.36,1,1.18-.03,2.36.01,3.53.01,1.12,0,2.84.24,3.82-.42,1.15-.77.82-2.75.82-3.93,0-7.55,0-15.09,0-22.64Z"/>
      <path class="cls-1" d="m172.27,35.22c0-5.61-.59-12.08-5.46-15.72-5.05-3.77-12.02-2.85-16.76.97-.33.26-.74.08-.79-.33-.11-.86-.34-1.62-1.23-1.95-.7-.26-1.54-.22-2.27-.23-1.58-.02-3.16.03-4.74-.02-1.39-.04-3.1-.06-3.42,1.62-.31,1.6-.07,3.44-.07,5.07,0,6.58,0,13.15,0,19.73,0,1.55,0,3.1,0,4.65,0,.93.03,2.06.92,2.61.72.46,1.81.25,2.62.24,1.46,0,2.93-.02,4.39-.03.76,0,1.7.15,2.44-.01,1.73-.38,1.4-3.13,1.35-4.38-.11-2.68-.03-5.38-.03-8.07,0-1.57,0-3.15.02-4.72.02-1.07.08-2.17.52-3.16.82-1.87,2.72-2.86,4.69-3,1.9-.14,4.13.45,5.12,2.22,1.16,2.08,1.01,4.86,1.01,7.16,0,2.89.02,5.79-.02,8.68-.02,1.36-.57,5.07,1.47,5.2,2.46.16,4.96.06,7.43.08.98.01,1.91.07,2.45-.95.75-1.42.34-3.3.33-4.84,0-3.61.04-7.22.05-10.83Z"/>
      <path class="cls-1" d="m72.89,42.88c-1.34-.82-2.77-1.46-4.11-2.28-1.21-.74-2.49-1.51-3.96-1.04-1.22.39-2.14,1.41-3.34,1.86-1.03.39-2.15.44-3.22.24-4.58-.87-7.12-6.31-4.73-10.36,1.81-3.07,6.13-4.16,9.24-2.48,1.21.65,2.13,2.18,3.68,1.69,1.3-.41,2.55-1.39,3.71-2.08,1.03-.62,2.19-1.18,3.11-1.95,1.24-1.03.76-2.27-.18-3.33-3.61-4.09-8.96-6.46-14.46-6.02-2.89.24-5.51.84-8.1,2.18-2.21,1.15-4.22,2.7-5.77,4.66-3.03,3.82-4.2,8.94-3.46,13.72.74,4.78,3.47,8.81,7.45,11.51,4.25,2.88,9.32,3.95,14.37,3.01,2.6-.48,5.07-1.44,7.18-3.04,1.13-.86,2.29-1.91,3.13-3.07.39-.53.8-1.22.63-1.9-.15-.59-.7-1-1.18-1.31Z"/>
      <path class="cls-1" d="m85.52,17.98c-1.51,0-3.03-.04-4.54-.01-.78.01-1.68.11-2.16.82-.4.6-.38,1.41-.39,2.1,0,1.76,0,3.52,0,5.28,0,6.36.02,12.73.02,19.09,0,1.14-.05,2.27-.06,3.4,0,.99.02,2.35.98,2.94.63.39,1.48.31,2.19.31.75,0,1.5,0,2.24,0,1.47,0,3.02.15,4.48,0,1.61-.16,2.04-1.39,2.06-2.83.02-1.57.02-3.14.03-4.71,0-3.14-.01-6.27-.01-9.41,0-3.15,0-6.3,0-9.46,0-1.22.03-2.43.07-3.64.03-1.03.09-2.23-.48-3.14-1.01-1.12-3.09-.76-4.44-.76Z"/>
      <path class="cls-1" d="m125.78.26c-2.97.58-5.22,3.18-5.42,6.2-.18,2.66,1.4,5.22,3.76,6.4,2.44,1.23,5.57.75,7.54-1.15,2.15-2.07,2.71-5.5,1.26-8.11-1.4-2.53-4.32-3.81-7.14-3.34Z"/>
      <path class="cls-1" d="m83.02.26c-2.97.58-5.22,3.18-5.42,6.2-.18,2.66,1.4,5.22,3.76,6.4,2.44,1.23,5.57.75,7.54-1.15,2.15-2.07,2.71-5.5,1.26-8.11-1.4-2.53-4.32-3.81-7.14-3.34Z"/>
      <path class="cls-1" d="m186.09,42.86c-1.29-2.08-3.96-3.05-6.27-2.17-1.88.71-3.21,2.65-3.27,4.65-.07,2.01,1.14,3.88,2.92,4.77,1.9.95,4.34.53,5.83-.98,1.64-1.65,1.95-4.27.79-6.26Z"/>
    </g>
  </g>
</svg>