  <svg xmlns="http://www.w3.org/2000/svg" id="Layer_2" data-name="Layer 2" viewBox="0 0 3275.76 469.56">
    <defs>
      <style>
        .cls-1 {
          fill: #b520ff;
          stroke-width: 0px;
        }
  
        .cls-2 {
          stroke-miterlimit: 10;
        }
  
        .cls-2, .cls-3, .cls-4 {
          fill: none;
          stroke: #b520ff;
          stroke-width: 2px;
        }
  
        .cls-3 {
          stroke-linecap: round;
        }
  
        .cls-3, .cls-4 {
          stroke-linejoin: round;
        }
      </style>
    </defs>
    <g id="Layer_3" data-name="Layer 3">
      <g>
        <path class="cls-1" d="m343.17,238.33c-1.17-6.46-12.82-63.82-12.92-64.32-4.17-19.14-8.12-33.39-10.43-40.36-.95-2.74-9.6-27.03-18.96-36.62-.05-.06-5.12-6.13-12.51-11.63-.36-.28-.74-.55-1.13-.83-8.04-5.81-17.08-10.66-26.88-14.41l-35.58-13.57-10.89-12.82-.38.32.28-.43s-.09-.08-.08-.06l-.19-.17-.38-.05c-.05,0-.13,0-.22.02h-.17s-.09.08-.09.08c-8.01,2.73-22.97,4.33-39.15,4.17h-.58c-16.21,0-31.17-1.71-39.09-4.46l-.08-.08-.21-.02c-.07-.01-.13-.02-.21-.02l-.38.05-.09.09c-.12.07-.21.17-.27.25l-7.16,8.61-3.8,4.51-36.76,12.95c-10.02,3.53-19.31,8.31-27.62,14.22-.37.27-.75.53-1.1.8-7.08,5.2-12,10.85-12.56,11.51l-.04.04c-11.61,11.86-19.17,36.28-19.24,36.51-2.34,6.89-6.39,21.08-10.72,40.27-.02.07-.22,1.05-.58,2.73C5.18,212.25.83,232.88.06,236.94l-.03.17s0,.05-.01.08v.14c-.01.11.01.21.03.29.06.17.16.33.28.43.03.03.09.08.16.12l.12.05c.08.03.16.05.19.05.97.31,11.64,5.58,15.14,7.31l.29.14c2.16,1.07,3.72,1.84,4.13,2.02,8.03,3.72,17.64,7.85,28,10.28,5.54,1.3,11.52,2.09,18.19,2.39l-.03.55c-1.74,31.82-2.93,58.54-3.07,85.57-.08,16.93-.02,25.84.05,34.45.06,7.3.11,15.58.1,29.42l.4,5.95v.1c.02.07.04.16.08.23l.05.13.03.03c2.31,3.98,10.23,5.33,15.01,6.14.67.11,1.26.21,1.78.31,6.15,1.18,10.64,1.69,17.16,1.93,7.9.28,14.76.5,20.98.66,15.05.4,31.05.56,51.89.51,8.75.08,16.52.12,23.75.12,10.27,0,19.47-.08,28.15-.25,6.42-.12,13.49-.3,20.99-.52,6.5-.19,10.99-.66,17.16-1.8.52-.09,1.13-.19,1.79-.3,4.73-.76,12.63-2.03,14.97-5.93.14-.16.22-.36.24-.59l.44-6.01c.09-13.19.22-21.16.34-28.86l.02-.94c.15-9.1.29-17.69.33-34.01.06-26.96-.94-53.71-2.45-85.59l-.03-.55c6.69-.28,12.59-1.02,18.04-2.26,10.35-2.36,20-6.42,28.08-10.08.33-.15,1.5-.72,3.12-1.5l1.61-.78c4.81-2.33,13.69-6.63,14.85-7.04.08,0,.15-.03.21-.05l.21-.11s.1-.08.16-.14c.03-.03.09-.1.14-.2l.09-.21c.02-.09.03-.18.03-.25l-.03-.22Zm-2.37-.24c-1.67.69-5.18,2.39-12.81,6.08l-1.63.79c-2.26,1.1-3.97,1.93-4.38,2.11-7.98,3.63-17.52,7.65-27.7,9.97-4.49,1.02-9.34,1.7-14.87,2.06-.5.03-1,.06-1.54.08-.43.03-.86.05-1.31.07-.32-6.2-.73-12.54-1.09-18.1-1.33-20.53-2.7-41.76-.77-62.19.73-7.69,1.86-15.4,3.36-22.93,4.65-23.42,11.91-42.01,22.18-56.83,0,0,0,0,0,.01l.07.08c.12.13.23.27.36.42.26.3.52.62.78.94.46.57.9,1.18,1.35,1.81.14.2.28.39.42.61.15.21.28.41.45.66.24.36.48.73.73,1.11.03.05.06.1.08.12l.77,1.24c1.42,2.36,2.88,5.06,4.34,8.03.34.69.68,1.37,1,2.06.72,1.51,1.41,3.03,2.05,4.52.28.63.55,1.25.81,1.85.65,1.54,1.25,2.98,1.78,4.32.1.23.18.46.27.69.28.69.54,1.34.77,1.94.29.76.55,1.45.78,2.05l.03.1c.15.39.28.72.39,1.03.32.87.5,1.38.54,1.49,2.29,6.9,6.21,21.07,10.37,40.13.03.15,9.93,48.86,12.49,61.99.04.25.09.48.13.7l-.9-.1.71,1.1ZM2.38,235.87l.14-.69c2.66-13.15,12.9-61.73,12.94-61.9,4.31-19.09,8.33-33.22,10.67-40.1.05-.18,5.59-18.15,14.45-30.52,1.17-1.63,2.36-3.11,3.53-4.39,10.16,14.87,17.28,33.52,21.77,56.98,1.45,7.62,2.53,15.34,3.19,22.96,1.8,20.54.27,41.76-1.22,62.28-.02.22-.03.43-.05.65l-.11-.25-.18,2.03-.16,2.21.14.33c-.26,3.6-.58,8.28-.86,13.02-.44-.02-.89-.04-1.34-.08-.52-.02-1.04-.06-1.54-.1l-2.11-.16c-4.59-.41-8.76-1.07-12.7-1.99-10.24-2.42-19.71-6.5-27.63-10.17-.41-.19-2.11-1.03-4.37-2.15-8.88-4.38-12.6-6.21-14.38-6.98.04-.07.09-.13.13-.21l.56-.88-.87.1Zm274.53,144.51l-.18,11.84c0,.15,0,.29-.01.54-.06,5.02-.13,10.85-.17,18.27l-.39,5.18c-1.92.25-3.83.52-5.75.8l-1.29.19c-5.63.82-11.45,1.66-17.23,2-14.93.87-30.17-.05-44.9-.94l-1.88-.11c-11.22-.67-22.69-1.02-34.11-1.03-1.21,0-2.41,0-3.62,0-10.18,0-20.44.27-30.49.79l-1.88.1c-14.67.79-29.84,1.6-44.91.62-5.68-.37-11.39-1.24-16.91-2.08l-.73-.11c-2.19-.33-4.37-.66-6.56-.97l-.42-23.06c0-.16,0-.33-.01-.43,0-.12,0-.24,0-.35v-.14c0-2.68-.03-5.15-.04-7.53l-.02-2.97c-.06-8.61-.13-17.51-.05-34.43.14-27.16,1.32-53.81,3.06-85.47l.02-.37.02.02,1.01-15.85.3-4.24c1.49-20.59,3.03-41.88,1.22-62.58-.68-7.75-1.77-15.53-3.23-23.15-4.02-21.03-10.13-38.22-18.68-52.43l.26.24-2.16-3.31c-.34-.52-.68-1.04-1.03-1.56l-.35-.51c-.12-.17-.23-.34-.35-.51,1.48-1.66,5.87-6.35,11.81-10.72.21-.15.42-.31.63-.46l.47-.33c8.12-5.78,17.24-10.48,27.12-13.96l35.81-12.62c1.01,28.66,33.64,36.8,40.22,38.14,7.6,1.56,15.74,1.56,23.34,0,6.57-1.35,39.18-9.48,40.22-38.1l34.59,13.18c9.64,3.69,18.54,8.45,26.5,14.21.35.26.7.51,1.04.77,5.9,4.4,10.24,9.11,11.73,10.81-.22.32-.45.65-.69,1l-.3.45c-.25.37-.5.74-.75,1.11-9.64,14.66-16.51,32.77-21,55.36-1.52,7.66-2.66,15.43-3.39,23.12-1.95,20.59-.58,41.89.76,62.59v.15c.35,5.2.69,10.57.98,15.89l.14,2.66c0,.07,0,.13,0,.2l.03.41-.02.03.02.62h.03c0,.16.02.31.02.47,1.51,31.85,2.51,58.58,2.45,85.5-.03,15.66-.17,24.13-.32,33.09ZM211.92,45.71c-.67,5.44-1.98,10.2-3.92,14.15-9.32.94-18.7,1.47-27.95,1.58-.64,0-1.28.02-1.94,0-.78.02-1.53.06-2.34.02-.87,0-1.74,0-2.61-.02h-.74c-1.17,0-2.34,0-3.51-.02l-4.06-.07c-8.7-.22-17.58-.8-26.39-1.72-1.95-3.98-3.28-8.76-3.94-14.23.17.06.35.11.52.16,8.45,2.49,22.41,3.98,37.36,3.98h1.1c15.16.14,29.33-1.23,37.86-3.67.2-.06.39-.11.58-.17Zm-29.66,33.83c9.82-2.35,27.99-6.69,31.55-32.81l9.29,10.99c-.28,27.89-32.24,35.86-38.66,37.18-7.37,1.51-15.16,1.51-22.53,0-6.42-1.32-38.39-9.28-38.66-37.18l9.37-11.27c3.11,23.18,16.95,29.62,31.47,33.09,5.95,1.42,12.23,1.42,18.18,0Z"></path>
        <g>
          <path class="cls-2" d="m548.39,100.52c20.14,2.12,23.68,23.9,23.68,23.9.56,2.54,3.08,30.95,3.08,30.95v47.53h-12.91v-48.87s0-19.46,0-19.46c0,0,2.83-18.59.37-22.05-.27-.38-5.32-10.24-14.73-9.89h-2.01c-9.25-.34-14.51,9.53-14.81,10.01-2.32,3.74.44,21.93.44,21.93v68.14l-12.91.02v-47.37s2.52-28.41,3.08-30.95c0,0,3.55-21.79,23.68-23.9h3.04Z"></path>
          <path class="cls-2" d="m544.44,100.52c20.14,2.12,23.68,23.9,23.68,23.9.56,2.54,3.08,30.95,3.08,30.95v47.53h-12.91v-48.87s0-19.46,0-19.46c0,0,2.83-18.59.37-22.05-.27-.38-5.32-10.24-14.73-9.89h-2.01c-9.25-.34-14.51,9.53-14.81,10.01-2.32,3.74.44,21.93.44,21.93v68.14l-12.91.02v-47.37s2.52-28.41,3.08-30.95c0,0,3.55-21.79,23.68-23.9h3.04Z"></path>
          <rect class="cls-2" x="433.26" y="202.91" width="223.28" height="166.13" rx="10.57" ry="10.57"></rect>
        </g>
        <g>
          <path class="cls-2" d="m803.36,157.1s-37.11,136.35-46.18,189.16c-9.07,52.8-14.62,78.91-7.01,86.65l45.93,12.38s5.24,2.81,20.17-21.8c14.92-24.62,21.5-44.93,21.5-44.93"></path>
          <path class="cls-2" d="m750.17,432.9s-2.52,22.44-2.98,23.89c-.45,1.45,2.34,1.38,14.29,3.84,11.95,2.47,22.08,5.8,27.9,7.91,2.26.82,6.71-23.26,6.71-23.26l-45.93-12.38Z"></path>
          <path class="cls-2" d="m1037.99,64.56s3.16-10.74,2.53-15.19c-.63-4.45-20.04-42.36-20.04-42.36,0,0-1.69-6.38-19.41-6-14.06.31-39.24.13-49.07.04v-.04s-.75,0-2.05.02c-1.3-.01-2.05-.02-2.05-.02v.04c-9.82.09-35.01.27-49.07-.04-17.72-.39-19.41,6-19.41,6,0,0-19.41,37.91-20.04,42.36-.63,4.45,2.53,15.19,2.53,15.19"></path>
          <path class="cls-2" d="m863.86,51.5s8.07,16.83,38.52,31.53c30.45,14.7,47.59,11.8,47.59,11.8l64.97-84.94"></path>
          <path class="cls-2" d="m885.43,10.69s14.7,34.1,70.37,76.43"></path>
          <line class="cls-2" x1="900.73" y1="34.3" x2="995.82" y2="34.3"></line>
          <path class="cls-2" d="m949.97,94.82l-.34.47c-.45.62.06,1.46.84,1.39,10.58-1.03,59.65-6.08,85.2-45.19"></path>
          <path class="cls-2" d="m1096.53,157.1s37.11,136.35,46.18,189.16c9.07,52.8,14.62,78.91,7.01,86.65l-45.93,12.38s-5.24,2.81-20.17-21.8c-14.92-24.62-21.16-46-21.16-46"></path>
          <path class="cls-2" d="m1149.71,432.9s2.52,22.44,2.98,23.89c.45,1.45-2.34,1.38-14.29,3.84-11.95,2.47-22.08,5.8-27.9,7.91-2.26.82-6.71-23.26-6.71-23.26l45.93-12.38Z"></path>
          <path class="cls-2" d="m1149.71,432.9s2.52,22.44,2.98,23.89c.45,1.45-2.34,1.38-14.29,3.84-11.95,2.47-22.08,5.8-27.9,7.91-2.26.82-6.71-23.26-6.71-23.26l45.93-12.38Z"></path>
          <path class="cls-2" d="m1096.58,157.1s-7.33-18.95-23.62-51.45c-16.29-32.49-43.58-44.87-43.58-44.87-18.73,43.71-79.41,42.16-79.41,42.16,0,0-60.68,1.55-79.41-42.16,0,0-27.29,12.38-43.58,44.87-16.29,32.49-23.62,51.45-23.62,51.45l35.84,22.82s-11.81,135-10.18,155.89c1.63,20.89,12.22,54.63,12.22,54.63h217.47s10.59-33.74,12.22-54.63c1.63-20.89-10.18-155.89-10.18-155.89l35.84-22.82Z"></path>
          <path class="cls-2" d="m949.97,390.44h-108.73s2.31,26.52,3.06,27.32c.76.79,105.67,1.32,105.67,1.32,0,0,104.91-.53,105.67-1.32.76-.79,3.06-27.32,3.06-27.32h-108.73Z"></path>
          <path class="cls-2" d="m949.97,390.44h-108.73s2.31,26.52,3.06,27.32c.76.79,105.67,1.32,105.67,1.32,0,0,104.91-.53,105.67-1.32.76-.79,3.06-27.32,3.06-27.32h-108.73Z"></path>
          <path class="cls-2" d="m1040.87,347.91c-1.18-1.04-2.77-2.45-4.46-4.33-1.76-1.96-5.38-6.41-9.47-14.21-2.47-4.32-4.93-9.39-7.1-15.19-2.2-5.28-3.44-9.42-4.45-15-1.37-6.16-2.33-12.89-2.68-20.19h-125.45c-.35,7.31-1.31,14.04-2.68,20.19-1.01,5.58-2.25,9.73-4.45,15-2.18,5.8-4.64,10.86-7.11,15.19-4.09,7.8-7.71,12.25-9.47,14.21-1.69,1.88-3.29,3.29-4.46,4.33-.26.24-.41.38-.41.38l.16.98,6.63,40.84h169.04l6.63-40.84.16-.98s-.16-.14-.41-.38Z"></path>
          <path class="cls-2" d="m1001.74,278.98s2.87,58.07,37.82,79.68l1.72-10.37s-26.38-23.29-28.59-69.31h-10.95Z"></path>
          <path class="cls-2" d="m898.19,278.98s-2.87,58.07-37.82,79.68l-1.72-10.37s26.38-23.29,28.59-69.31h10.95Z"></path>
        </g>
        <g>
          <path class="cls-2" d="m1334.44,258.85l82.63,5.17s9.09,1.06,11.36-1.06c0,0,2.4-30.35,1.94-34.29-.41-3.53-2.24-6.54-3.97-9.56-7.77-13.61-22.1-22.66-36.18-28.69-16.24-6.95-33.23-6.07-50.17-2.44-5.44,1.17-10.75,2.91-15.98,4.78-5.45,1.95-10.22,3.59-13.15,8.97-.16.29-.3.6-.45.9,0,0-23.02,45.99-23.02,45.99"></path>
          <path class="cls-4" d="m1334.44,258.85s-47.91,25.33-63.32,25.48c-15.41.15-26.55-5.65-27.77-19.38l44.09-16.32s13.27,10.07,46.99,10.22Z"></path>
        </g>
        <g>
          <rect class="cls-2" x="1520.48" y="189.21" width="105.46" height="91.14" rx="12" ry="12"></rect>
          <line class="cls-2" x1="1520.48" y1="221.73" x2="1625.94" y2="221.73"></line>
        </g>
        <path class="cls-2" d="m1809.11,153.96l-36.78-13.97s-36.82,135.32-45.83,187.72c-9,52.41-14.5,78.32-6.95,86l45.58,12.28s5.2,2.8,20.01-21.63c9.62-15.87,17.38-33.27,21.64-43.52"></path>
        <path class="cls-2" d="m1973.6,34.77h0s50.12,21.91,66.28,54.16c16.17,32.25,23.45,51.06,23.45,51.06"></path>
        <path class="cls-2" d="m1772.33,139.99s7.28-18.81,23.45-51.06c16.16-32.25,68.06-54.16,68.06-54.16h.01"></path>
        <line class="cls-2" x1="1809.11" y1="153.96" x2="1807.9" y2="162.64"></line>
        <path class="cls-2" d="m2028.87,360.91c4.26,10.25,12.01,27.61,21.61,43.45,14.81,24.43,20.01,21.63,20.01,21.63l45.58-12.28c7.56-7.68,2.06-33.59-6.95-86-8.94-51.99-45.26-185.61-45.82-187.7-.01-.01-.01-.02-.01-.02l-36.79,13.98,1.21,8.67.07.68s11.71,133.3,10.09,154.03c-1.04,13.35-5.76,31.98-9,43.56-1.79,6.4-3.12,10.65-3.12,10.65h-215.83s-1.34-4.28-3.14-10.72c-3.24-11.58-7.95-30.17-8.98-43.49-1.62-20.73,10.1-154.71,10.1-154.71"></path>
        <path class="cls-2" d="m1917.84,371.56h-107.91s2.29,26.32,3.04,27.11c.75.79,104.87,1.31,104.87,1.31,0,0,104.12-.52,104.87-1.31s3.04-27.11,3.04-27.11h-107.91Z"></path>
        <path class="cls-2" d="m1875.76,20.64c.05-.14.17-.21.31-.16,8.01,2.76,23.37,4.83,41.72,4.83h.65c.1,0,.21,0,.31.01.11-.01.21,0,.32,0,18.7.17,34.39-1.79,42.49-4.54.1-.03.19.03.21.13v.06"></path>
        <path class="cls-2" d="m1880.76,38.55h.01c9.48,1.57,23.68,2.29,37.94,2.25,14.3.14,28.56-.48,38.05-1.99"></path>
        <line class="cls-2" x1="1953.66" y1="43.65" x2="1953.65" y2="43.65"></line>
        <path class="cls-2" d="m1961.71,21.08c-2.88,27.7-19.96,33.31-33.4,36.53-6.3,1.51-12.85,1.51-19.15,0-13.44-3.21-30.45-9.15-33.32-36.86-.01-.14-.18-.19-.27-.09l-11.68,14.06s-.04.07-.04.1c.04,30.34,33.55,39.61,42.53,41.45,8.08,1.65,16.64,1.66,24.71,0,8.97-1.84,42.48-11.11,42.53-41.45,0-.04-.01-.07-.04-.1l-11.6-13.73c-.09-.1-.26-.05-.27.09Z"></path>
        <g>
          <line class="cls-2" x1="2245.58" y1="152.46" x2="2290.35" y2="152.46"></line>
          <path class="cls-2" d="m2294.33,224.61s-20.44,10.6-25.03,14.54c0,0,3.99,14.93,18.88,20.08"></path>
          <path class="cls-2" d="m2210.43,301.47s12.05,21.71,35.63,21.22"></path>
          <path class="cls-2" d="m2293.29,221.41c-1.55-5.52-1.69-11.32-1.81-17.06-.44-20.13-.87-40.27-1.31-60.4-.03-1.29-.16-2.78-1.23-3.5-.66-.44-1.5-.46-2.3-.46-12.38,0-24.76,0-37.14,0-4.59,0-4.21,6.02-3.95,9.18l.61,60.93c.04,8.94.07,17.98-2.06,26.66-4.43,18.03-17.57,32.42-26.88,48.49-3.79,6.54-7.03,13.64-7.48,21.18-.15,2.46.05,4.98.6,7.41,1.14,5.01,3.78,9.62,7.97,12.5,10.95,7.52,24.49.67,32.39-7.94,5.2-5.68,8.95-12.51,12.45-19.38,7.06-13.87,14.35-28.28,25.03-39.78,4.19-4.52,9.14-8.94,10.45-14.96,1.68-7.75-3.18-15.22-5.33-22.86Z"></path>
        </g>
        <path class="cls-2" d="m3274.25,293.64l-8.69-19.87h0c-4.92-13.34-22.56-45.2-22.7-45.46h.02s-3.65-4.64-11.75-12.58c-6.5-6.37-16.51-9.57-20.22-10.59.06-.04.12-.08.18-.12,7.85-5.38,11.99-12.78,11.87-22.39-.09-7.1-1.94-13.53-5.04-19.43,5.72-6.07,8.11-20.55.74-27.56-7.2-6.85-21.07-4.03-27.08,1.71-5.96-2.88-12.53-4.57-19.79-4.83-7.94-.29-15.83,1.52-23.06,4.95-5.95-5.82-19.94-8.72-27.19-1.82-7.37,7.01-4.98,21.51.75,27.57-.95,1.86-1.79,3.77-2.53,5.74-5.72,15.37-2.28,28.1,9.37,36.14-3.57.97-13.8,4.17-20.4,10.64-8.11,7.94-11.75,12.57-11.75,12.57,0,0-18.46,33.32-22.98,46.23-.18.52-.36,1.03-.54,1.53-.52,1.4-1.06,2.89-1.17,3.3-.46,1.3-.89,2.53-1.28,3.67l-4.15,10.76c-5.28,16.49,31.93,28.4,37.2,11.91l2.16-6.76c.66,5.21,2.2,10.53,4.7,15.65,9.24,18.88,27.92,27.75,41.74,19.8,5.4-3.11,9.25-8.33,11.39-14.66,4.08-.41,8.59-.48,12.82-.23,2.43,7.5,7.06,13.5,13.54,16.49,14.32,6.61,32.17-3.99,39.87-23.69,1.81-4.62,2.89-9.33,3.31-13.91l.74.17,2.28,7.14c5.28,16.49,42.91,4.45,37.63-12.04Z"></path>
        <g>
          <path class="cls-3" d="m2389.02,292.63v-22.85l5.71-11.42s15.71-7.62,28.08-10.23c12.38-2.62,37.13-6.19,47.36-6.19,9.76-5.24,44.98-28.56,83.77-28.56s65.92,5,100.19,23.08c11.19,2.38,27.84,5.95,27.84,5.95v23.56h7.38s2.14,15.94-2.38,19.99c-4.52,4.05-23.32,8.57-33.79,8.57,0-7.14-1.67-32.6-24.27-32.6s-27.13,15.94-27.13,36.89h-143.74s.24-37.13-25.46-37.13-26.18,21.66-26.18,37.13c-5.47-2.38-17.37-6.19-17.37-6.19Z"></path>
          <path class="cls-3" d="m2634.14,164.84c-7.38,9.52-25.06,35.58-25.06,54.08"></path>
          <circle class="cls-1" cx="2634.14" cy="164.84" r="2.68"></circle>
          <path class="cls-3" d="m2486.12,242.18h132.08s5.47.24,5.47-5.95c0-14.28-44.26-15.94-61.16-15.94-49.02,0-76.39,21.89-76.39,21.89Z"></path>
          <line class="cls-3" x1="2575.64" y1="220.59" x2="2562.03" y2="298.82"></line>
          <line class="cls-3" x1="2486.12" y1="242.18" x2="2486.12" y2="298.82"></line>
          <circle class="cls-3" cx="2432.1" cy="287.57" r="19.83"></circle>
          <circle class="cls-3" cx="2627.78" cy="287.57" r="19.83"></circle>
          <polyline class="cls-3" points="2393.26 261.32 2405.44 261.32 2401.63 270.5 2389.02 270.5"></polyline>
          <polyline class="cls-3" points="2681.98 249.08 2668.41 249.08 2678.17 265.91 2681.98 265.91"></polyline>
        </g>
        <g>
          <rect class="cls-2" x="2780.61" y="111.6" width="195.67" height="246.36"></rect>
          <g>
            <line class="cls-2" x1="2780.61" y1="187.44" x2="2976.28" y2="337.46"></line>
            <line class="cls-2" x1="2779.92" y1="132.1" x2="2975.59" y2="282.12"></line>
          </g>
        </g>
      </g>
    </g>
  </svg>